<svg width="168" height="59" viewBox="0 0 168 59" fill="none" xmlns="http://www.w3.org/2000/svg">
<path d="M41.0389 16.8532C40.5966 15.9054 40.5123 14.9787 40.9125 14.073C41.1652 13.4833 41.5865 13.0199 42.1552 12.704C43.2293 12.0721 44.6405 12.1985 45.5883 12.9988C46.7046 13.9466 46.9152 15.1472 46.2412 16.9796C46.5993 17.0638 46.9363 17.127 47.2943 17.1902C53.276 18.5171 57.8043 23.1929 58.8364 29.1956C59.3629 32.2286 58.9628 35.1562 57.678 37.9575C57.5095 38.3156 57.3199 38.484 56.8987 38.463C55.0241 38.4419 53.1707 38.4419 51.2961 38.4419C51.1487 38.4419 51.0223 38.4419 50.7696 38.4419C52.9811 36.1251 53.95 33.4502 53.5287 30.3751C53.1917 27.9319 52.0333 25.931 50.1167 24.3724C46.4097 21.3605 41.2074 21.5711 37.6268 24.92C34.4043 27.9108 33.2037 33.9767 37.5215 38.4419C37.353 38.4419 37.2056 38.463 37.0792 38.463C29.7917 38.463 22.5252 38.463 15.2377 38.463C13.8687 38.463 12.8156 37.7679 12.4365 36.5885C11.8678 34.8192 13.1947 33.0289 15.1113 33.0289C19.2606 33.0289 23.3888 33.0289 27.538 33.0289C27.8118 33.0289 28.1067 33.0289 28.3594 32.9447C28.9702 32.7762 29.3704 32.1443 29.2862 31.5335C29.2019 30.9017 28.6964 30.4172 28.0435 30.3751C27.7486 30.3541 27.4538 30.3751 27.1589 30.3751C23.136 30.3751 19.1132 30.3751 15.0903 30.3751C13.5738 30.3751 12.3733 29.3009 12.3101 27.8687C12.2258 26.3312 13.2579 25.1517 14.7954 24.9832C15.0692 24.9621 15.343 24.9411 15.6168 24.9411C20.419 24.9411 25.2212 24.9411 30.0023 24.9411C31.0343 24.9411 31.6873 24.0775 31.3503 23.1508C31.1397 22.6032 30.6552 22.2662 29.9812 22.2662C28.6333 22.2662 27.2642 22.2662 25.9162 22.2662C24.484 22.2662 23.3256 21.2973 23.1571 19.9704C22.9886 18.4961 23.8521 17.2745 25.3054 16.9375C25.5371 16.8743 25.7899 16.8743 26.0426 16.8743C30.8237 16.8743 35.6048 16.8743 40.3859 16.8743C40.5966 16.8532 40.7651 16.8532 41.0389 16.8532Z" fill="white"/>
<path d="M55.6347 41.1402C55.2767 41.5404 55.0029 41.8563 54.708 42.1512C51.7382 45.0788 48.1577 46.5532 43.9663 46.5532C38.0057 46.5532 32.0451 46.5532 26.0635 46.5532C24.547 46.5532 23.536 45.816 23.199 44.4891C22.7778 42.8462 23.9783 41.2244 25.6633 41.1402C25.8528 41.1402 26.0424 41.1191 26.2319 41.1191C35.8152 41.1191 45.3985 41.1191 54.9818 41.1191C55.1714 41.1402 55.3399 41.1402 55.6347 41.1402Z" fill="white"/>
<path d="M65.2139 29.6201C65.2771 26.7978 66.1827 24.4809 68.4574 22.8381C69.5948 22.0167 70.9006 21.6375 72.2908 21.5533C73.6387 21.469 74.9656 21.5744 76.2294 22.1009C78.6094 23.1119 80.0416 24.9232 80.5892 27.4086C81.2 30.2309 80.6946 32.8426 78.7568 35.0541C77.788 36.1494 76.5242 36.7812 75.092 37.0972C73.407 37.4552 71.7431 37.4131 70.1214 36.8655C67.3411 35.8966 65.8879 33.8325 65.3824 31.0313C65.256 30.5047 65.256 29.9992 65.2139 29.6201ZM67.9941 29.3884C68.0362 29.8097 68.0573 30.2309 68.1415 30.6521C68.5206 32.5056 69.4684 33.9168 71.3851 34.4433C72.1012 34.6329 72.8805 34.6961 73.6387 34.654C75.3026 34.5486 76.5874 33.7483 77.3878 32.2318C77.9143 31.2208 78.1039 30.1467 78.0407 29.0304C77.9144 26.7767 76.7138 24.4388 73.7862 24.0808C71.7642 23.828 69.8054 24.502 68.7312 26.5029C68.2047 27.4296 67.9941 28.3774 67.9941 29.3884Z" fill="white"/>
<path d="M100.641 27.6838C100.641 25.6619 100.641 23.7873 100.641 21.8496C101.504 21.8496 102.347 21.8496 103.231 21.8496C103.231 26.8624 103.231 31.8752 103.231 36.9091C102.452 36.9091 101.652 36.9091 100.851 36.9091C100.788 36.4667 100.725 36.0244 100.662 35.6032C100.578 35.6243 100.557 35.6453 100.535 35.6453C99.0401 38.0675 93.922 37.6673 92.3634 34.529C91.3945 32.5702 91.3945 30.5483 92.3634 28.6106C93.1427 27.052 94.5328 26.2937 96.2177 26.1252C96.9128 26.062 97.65 26.1252 98.345 26.2516C99.2296 26.4201 99.9879 26.8835 100.641 27.6838ZM100.472 31.6225C100.472 29.8322 99.1033 28.4631 97.334 28.4631C95.5859 28.4631 94.3011 29.79 94.3011 31.5803C94.3011 33.4338 95.5859 34.7607 97.3762 34.7607C99.1454 34.7818 100.472 33.4338 100.472 31.6225Z" fill="white"/>
<path d="M114.248 33.9791C114.711 34.4424 115.238 34.969 115.806 35.5377C115.259 36.1064 114.606 36.5065 113.869 36.7593C111.889 37.4543 109.909 37.4754 108.013 36.4855C106.434 35.664 105.675 34.2529 105.423 32.5258C105.254 31.2621 105.38 30.0405 105.949 28.9031C106.834 27.1128 108.35 26.1861 110.288 26.0386C111.152 25.9755 112.057 26.0176 112.9 26.2282C114.943 26.7337 116.249 28.3976 116.417 30.5249C116.459 31.0514 116.459 31.578 116.48 32.0835C116.501 32.4415 116.354 32.5679 115.975 32.5679C113.532 32.5468 111.088 32.5679 108.645 32.5679C108.477 32.5679 108.329 32.5679 108.098 32.5679C108.182 33.3472 108.561 33.8948 109.151 34.295C110.141 34.9479 111.257 35.0111 112.373 34.7163C113.005 34.5478 113.595 34.2318 114.248 33.9791ZM108.14 30.3564C110.077 30.3564 111.994 30.3564 113.89 30.3564C113.869 29.6824 113.51 29.0927 112.942 28.7346C111.868 28.0606 110.077 28.1449 109.087 28.9242C108.603 29.3033 108.287 29.7666 108.14 30.3564Z" fill="white"/>
<path d="M139.585 26.4403C139.585 27.2196 139.585 27.9357 139.585 28.715C139.248 28.715 138.911 28.715 138.574 28.715C138.005 28.715 137.436 28.736 136.868 28.715C136.552 28.6939 136.446 28.7992 136.446 29.1362C136.468 31.5794 136.446 34.0226 136.446 36.4448C136.446 36.5922 136.446 36.7396 136.446 36.9081C135.562 36.9081 134.719 36.9081 133.835 36.9081C133.835 36.7186 133.835 36.5501 133.835 36.3816C133.835 33.9805 133.835 31.5794 133.835 29.1994C133.835 28.8203 133.793 28.736 133.392 28.736C132.908 28.736 132.381 28.715 131.876 28.715C131.876 27.9567 131.876 27.2406 131.876 26.4403C132.36 26.4403 133.35 26.4403 133.856 26.4403C133.856 26.4403 133.856 26.3349 133.835 25.9769C133.793 24.9027 133.982 23.8707 134.656 22.9861C135.646 21.7223 137.479 21.2168 139.248 21.7434C139.732 21.8908 140.174 22.1225 140.68 22.3331C140.343 23.0282 140.027 23.66 139.711 24.313C138.848 23.8496 137.963 23.4705 137.057 24.1234C136.531 24.5025 136.341 25.3661 136.489 26.4403C137.521 26.4403 138.553 26.4403 139.585 26.4403Z" fill="white"/>
<path d="M155.444 27.5561C154.875 28.1458 154.348 28.6934 153.801 29.2832C153 28.6302 152.095 28.3143 151.063 28.5039C150.304 28.6302 149.673 28.9883 149.188 29.6202C148.261 30.8207 148.346 32.8005 149.336 33.8747C150.241 34.8646 152.347 35.2859 153.969 33.9379C154.243 34.2117 154.538 34.4645 154.833 34.7593C155.107 35.0331 155.401 35.328 155.696 35.6439C154.896 36.4443 153.948 36.9919 152.811 37.2025C151.294 37.4553 149.841 37.3078 148.493 36.5496C146.85 35.6229 146.113 34.1275 145.966 32.2951C145.881 31.2209 145.966 30.1467 146.408 29.1357C147.293 27.1348 148.935 26.2291 151.042 26.0607C152.537 25.9343 153.927 26.2291 155.086 27.2612C155.191 27.3033 155.296 27.4086 155.444 27.5561Z" fill="white"/>
<path d="M89.9625 29.3043C89.2464 28.6303 88.4039 28.5461 87.5614 28.6303C86.2345 28.7778 85.392 29.7888 85.3709 31.242C85.3499 32.9691 85.3709 34.6962 85.3709 36.4023C85.3709 36.5497 85.3709 36.6971 85.3709 36.8867C84.5074 36.8867 83.6438 36.8867 82.7803 36.8867C82.7803 33.3483 82.7803 29.8309 82.7803 26.2924C83.5596 26.2924 84.3599 26.2924 85.1603 26.2924C85.2235 26.6505 85.3077 27.0296 85.392 27.514C86.1713 26.2924 87.2665 25.9554 88.5513 25.9976C89.5202 26.0397 90.3837 26.3135 91.163 26.9875C90.7628 27.7668 90.3627 28.504 89.9625 29.3043Z" fill="white"/>
<path d="M118.544 26.2913C119.302 26.2913 120.018 26.2913 120.755 26.3124C120.84 26.3124 120.945 26.4809 120.966 26.5862C121.029 26.8389 121.071 27.1127 121.114 27.4497C121.219 27.3865 121.261 27.3444 121.303 27.3023C122.125 26.1439 123.304 25.9333 124.61 26.0596C125.326 26.1228 126 26.3756 126.611 26.7968C126.821 26.9442 126.906 27.0917 126.758 27.3444C126.4 27.9763 126.084 28.6292 125.705 29.3243C125.094 28.7977 124.399 28.6292 123.62 28.6503C122.167 28.6924 121.135 29.6823 121.135 31.1356C121.114 32.9048 121.135 34.6951 121.135 36.4643C121.135 36.6118 121.135 36.7592 121.135 36.9488C120.271 36.9488 119.407 36.9488 118.544 36.9488C118.544 33.3893 118.544 29.8719 118.544 26.2913Z" fill="white"/>
<path d="M127.979 36.948C127.979 33.3675 127.979 29.829 127.979 26.2695C128.843 26.2695 129.664 26.2695 130.528 26.2695C130.549 26.438 130.57 26.5855 130.57 26.754C130.57 29.9975 130.57 33.7255 130.57 36.9691H127.979V36.948Z" fill="white"/>
<path d="M141.564 36.948C141.564 33.3675 141.564 29.829 141.564 26.2695C142.407 26.2695 143.228 26.2695 144.113 26.2695C144.134 26.417 144.155 26.5855 144.155 26.7329C144.155 29.9765 144.155 33.7045 144.155 36.948H141.564Z" fill="white"/>
<path d="M144.344 23.2606C144.344 24.1663 143.733 24.7982 142.828 24.7982C141.922 24.7982 141.29 24.1874 141.29 23.2817C141.29 22.376 141.922 21.7441 142.828 21.7441C143.733 21.7441 144.344 22.3549 144.344 23.2606Z" fill="white"/>
<path d="M127.707 23.2602C127.707 22.3545 128.318 21.7227 129.245 21.7227C130.15 21.7227 130.782 22.3545 130.782 23.2602C130.782 24.1448 130.129 24.7977 129.223 24.7977C128.339 24.7977 127.707 24.1659 127.707 23.2602Z" fill="white"/>
</svg>
