<svg width="168" height="59" viewBox="0 0 168 59" fill="none" xmlns="http://www.w3.org/2000/svg">
<path d="M41.0389 16.8532C40.5966 15.9054 40.5123 14.9787 40.9125 14.073C41.1652 13.4833 41.5865 13.0199 42.1552 12.704C43.2293 12.0721 44.6405 12.1985 45.5883 12.9988C46.7046 13.9466 46.9152 15.1472 46.2412 16.9796C46.5993 17.0638 46.9363 17.127 47.2943 17.1902C53.276 18.5171 57.8043 23.1929 58.8364 29.1956C59.3629 32.2286 58.9628 35.1562 57.678 37.9575C57.5095 38.3156 57.3199 38.484 56.8987 38.463C55.0241 38.4419 53.1707 38.4419 51.2961 38.4419C51.1487 38.4419 51.0223 38.4419 50.7696 38.4419C52.9811 36.1251 53.95 33.4502 53.5287 30.3751C53.1917 27.9319 52.0333 25.931 50.1167 24.3724C46.4097 21.3605 41.2074 21.5711 37.6268 24.92C34.4043 27.9108 33.2037 33.9767 37.5215 38.4419C37.353 38.4419 37.2056 38.463 37.0792 38.463C29.7917 38.463 22.5252 38.463 15.2377 38.463C13.8687 38.463 12.8156 37.7679 12.4365 36.5885C11.8678 34.8192 13.1947 33.0289 15.1113 33.0289C19.2606 33.0289 23.3888 33.0289 27.538 33.0289C27.8118 33.0289 28.1067 33.0289 28.3594 32.9447C28.9702 32.7762 29.3704 32.1443 29.2862 31.5335C29.2019 30.9017 28.6964 30.4172 28.0435 30.3751C27.7486 30.3541 27.4538 30.3751 27.1589 30.3751C23.136 30.3751 19.1132 30.3751 15.0903 30.3751C13.5738 30.3751 12.3733 29.3009 12.3101 27.8687C12.2258 26.3312 13.2579 25.1517 14.7954 24.9832C15.0692 24.9621 15.343 24.9411 15.6168 24.9411C20.419 24.9411 25.2212 24.9411 30.0023 24.9411C31.0343 24.9411 31.6873 24.0775 31.3503 23.1508C31.1397 22.6032 30.6552 22.2662 29.9812 22.2662C28.6333 22.2662 27.2642 22.2662 25.9162 22.2662C24.484 22.2662 23.3256 21.2973 23.1571 19.9704C22.9886 18.4961 23.8521 17.2745 25.3054 16.9375C25.5371 16.8743 25.7899 16.8743 26.0426 16.8743C30.8237 16.8743 35.6048 16.8743 40.3859 16.8743C40.5966 16.8532 40.7651 16.8532 41.0389 16.8532Z" fill="white"/>
<path d="M55.6347 41.1402C55.2767 41.5404 55.0029 41.8563 54.708 42.1512C51.7382 45.0788 48.1577 46.5532 43.9663 46.5532C38.0057 46.5532 32.0451 46.5532 26.0635 46.5532C24.547 46.5532 23.536 45.816 23.199 44.4891C22.7778 42.8462 23.9783 41.2244 25.6633 41.1402C25.8528 41.1402 26.0424 41.1191 26.2319 41.1191C35.8152 41.1191 45.3985 41.1191 54.9818 41.1191C55.1714 41.1402 55.3399 41.1402 55.6347 41.1402Z" fill="white"/>
<path d="M65.2134 29.6201C65.2766 26.7978 66.1822 24.4809 68.457 22.8381C69.5943 22.0167 70.9002 21.6375 72.2903 21.5533C73.6382 21.469 74.9652 21.5744 76.2289 22.1009C78.6089 23.1119 80.0411 24.9232 80.5888 27.4086C81.1996 30.2309 80.6941 32.8426 78.7563 35.0541C77.7875 36.1494 76.5238 36.7812 75.0915 37.0972C73.4066 37.4552 71.7426 37.4131 70.1209 36.8655C67.3407 35.8966 65.8874 33.8325 65.3819 31.0313C65.2555 30.5047 65.2555 29.9992 65.2134 29.6201ZM67.9936 29.3884C68.0357 29.8097 68.0568 30.2309 68.141 30.6521C68.5201 32.5056 69.4679 33.9168 71.3846 34.4433C72.1007 34.6329 72.88 34.6961 73.6382 34.654C75.3022 34.5486 76.5869 33.7483 77.3873 32.2318C77.9139 31.2208 78.1034 30.1467 78.0402 29.0304C77.9139 26.7767 76.7133 24.4388 73.7857 24.0808C71.7637 23.828 69.8049 24.502 68.7308 26.5029C68.2042 27.4296 67.9936 28.3774 67.9936 29.3884Z" fill="white"/>
<path d="M100.64 27.6838C100.64 25.6619 100.64 23.7873 100.64 21.8496C101.503 21.8496 102.346 21.8496 103.23 21.8496C103.23 26.8624 103.23 31.8752 103.23 36.9091C102.451 36.9091 101.651 36.9091 100.85 36.9091C100.787 36.4667 100.724 36.0244 100.661 35.6032C100.577 35.6243 100.556 35.6453 100.535 35.6453C99.0391 38.0675 93.921 37.6673 92.3624 34.529C91.3935 32.5702 91.3935 30.5483 92.3624 28.6106C93.1417 27.052 94.5318 26.2937 96.2168 26.1252C96.9118 26.062 97.649 26.1252 98.344 26.2516C99.2286 26.4201 99.9869 26.8835 100.64 27.6838ZM100.471 31.6225C100.471 29.8322 99.1023 28.4631 97.3331 28.4631C95.5849 28.4631 94.3001 29.79 94.3001 31.5803C94.3001 33.4338 95.5849 34.7607 97.3752 34.7607C99.1444 34.7818 100.471 33.4338 100.471 31.6225Z" fill="white"/>
<path d="M114.247 33.9791C114.71 34.4424 115.237 34.969 115.805 35.5377C115.258 36.1064 114.605 36.5065 113.868 36.7593C111.888 37.4543 109.908 37.4754 108.012 36.4855C106.433 35.664 105.674 34.2529 105.422 32.5258C105.253 31.2621 105.38 30.0405 105.948 28.9031C106.833 27.1128 108.349 26.1861 110.287 26.0386C111.151 25.9755 112.056 26.0176 112.899 26.2282C114.942 26.7337 116.248 28.3976 116.416 30.5249C116.458 31.0514 116.458 31.578 116.479 32.0835C116.5 32.4415 116.353 32.5679 115.974 32.5679C113.531 32.5468 111.087 32.5679 108.644 32.5679C108.476 32.5679 108.328 32.5679 108.097 32.5679C108.181 33.3472 108.56 33.8948 109.15 34.295C110.14 34.9479 111.256 35.0111 112.372 34.7163C113.004 34.5478 113.594 34.2318 114.247 33.9791ZM108.139 30.3564C110.076 30.3564 111.993 30.3564 113.889 30.3564C113.868 29.6824 113.51 29.0927 112.941 28.7346C111.867 28.0606 110.076 28.1449 109.086 28.9242C108.602 29.3033 108.286 29.7666 108.139 30.3564Z" fill="white"/>
<path d="M139.583 26.4403C139.583 27.2196 139.583 27.9357 139.583 28.715C139.246 28.715 138.909 28.715 138.572 28.715C138.004 28.715 137.435 28.736 136.866 28.715C136.55 28.6939 136.445 28.7992 136.445 29.1362C136.466 31.5794 136.445 34.0226 136.445 36.4448C136.445 36.5922 136.445 36.7396 136.445 36.9081C135.56 36.9081 134.718 36.9081 133.833 36.9081C133.833 36.7186 133.833 36.5501 133.833 36.3816C133.833 33.9805 133.833 31.5794 133.833 29.1994C133.833 28.8203 133.791 28.736 133.391 28.736C132.907 28.736 132.38 28.715 131.875 28.715C131.875 27.9567 131.875 27.2406 131.875 26.4403C132.359 26.4403 133.349 26.4403 133.854 26.4403C133.854 26.4403 133.854 26.3349 133.833 25.9769C133.791 24.9027 133.981 23.8707 134.655 22.9861C135.645 21.7223 137.477 21.2168 139.246 21.7434C139.731 21.8908 140.173 22.1225 140.678 22.3331C140.341 23.0282 140.026 23.66 139.71 24.313C138.846 23.8496 137.961 23.4705 137.056 24.1234C136.529 24.5025 136.34 25.3661 136.487 26.4403C137.519 26.4403 138.551 26.4403 139.583 26.4403Z" fill="white"/>
<path d="M155.443 27.5561C154.874 28.1458 154.348 28.6934 153.8 29.2832C153 28.6302 152.094 28.3143 151.062 28.5039C150.304 28.6302 149.672 28.9883 149.188 29.6202C148.261 30.8207 148.345 32.8005 149.335 33.8747C150.241 34.8646 152.347 35.2859 153.969 33.9379C154.243 34.2117 154.537 34.4645 154.832 34.7593C155.106 35.0331 155.401 35.328 155.696 35.6439C154.896 36.4443 153.948 36.9919 152.81 37.2025C151.294 37.4553 149.841 37.3078 148.493 36.5496C146.85 35.6229 146.113 34.1275 145.965 32.2951C145.881 31.2209 145.965 30.1467 146.407 29.1357C147.292 27.1348 148.935 26.2291 151.041 26.0607C152.537 25.9343 153.927 26.2291 155.085 27.2612C155.19 27.3033 155.296 27.4086 155.443 27.5561Z" fill="white"/>
<path d="M89.961 29.3043C89.2449 28.6303 88.4024 28.5461 87.5599 28.6303C86.233 28.7778 85.3905 29.7888 85.3695 31.242C85.3484 32.9691 85.3695 34.6962 85.3695 36.4023C85.3695 36.5497 85.3695 36.6971 85.3695 36.8867C84.5059 36.8867 83.6424 36.8867 82.7788 36.8867C82.7788 33.3483 82.7788 29.8309 82.7788 26.2924C83.5581 26.2924 84.3585 26.2924 85.1588 26.2924C85.222 26.6505 85.3063 27.0296 85.3905 27.514C86.1698 26.2924 87.265 25.9554 88.5498 25.9976C89.5187 26.0397 90.3822 26.3135 91.1615 26.9875C90.7614 27.7668 90.3612 28.504 89.961 29.3043Z" fill="white"/>
<path d="M118.543 26.2913C119.301 26.2913 120.017 26.2913 120.755 26.3124C120.839 26.3124 120.944 26.4809 120.965 26.5862C121.028 26.8389 121.07 27.1127 121.113 27.4497C121.218 27.3865 121.26 27.3444 121.302 27.3023C122.124 26.1439 123.303 25.9333 124.609 26.0596C125.325 26.1228 125.999 26.3756 126.61 26.7968C126.82 26.9442 126.905 27.0917 126.757 27.3444C126.399 27.9763 126.083 28.6292 125.704 29.3243C125.093 28.7977 124.398 28.6292 123.619 28.6503C122.166 28.6924 121.134 29.6823 121.134 31.1356C121.113 32.9048 121.134 34.6951 121.134 36.4643C121.134 36.6118 121.134 36.7592 121.134 36.9488C120.27 36.9488 119.407 36.9488 118.543 36.9488C118.543 33.3893 118.543 29.8719 118.543 26.2913Z" fill="white"/>
<path d="M127.979 36.948C127.979 33.3675 127.979 29.829 127.979 26.2695C128.842 26.2695 129.663 26.2695 130.527 26.2695C130.548 26.438 130.569 26.5855 130.569 26.754C130.569 29.9975 130.569 33.7255 130.569 36.9691H127.979V36.948Z" fill="white"/>
<path d="M141.564 36.948C141.564 33.3675 141.564 29.829 141.564 26.2695C142.406 26.2695 143.228 26.2695 144.112 26.2695C144.134 26.417 144.155 26.5855 144.155 26.7329C144.155 29.9765 144.155 33.7045 144.155 36.948H141.564Z" fill="white"/>
<path d="M144.344 23.2606C144.344 24.1663 143.733 24.7982 142.827 24.7982C141.921 24.7982 141.29 24.1874 141.29 23.2817C141.29 22.376 141.921 21.7441 142.827 21.7441C143.733 21.7441 144.344 22.3549 144.344 23.2606Z" fill="white"/>
<path d="M127.706 23.2602C127.706 22.3545 128.316 21.7227 129.243 21.7227C130.149 21.7227 130.781 22.3545 130.781 23.2602C130.781 24.1448 130.128 24.7977 129.222 24.7977C128.337 24.7977 127.706 24.1659 127.706 23.2602Z" fill="white"/>
</svg>
